# xmcd
#
# Track frame offsets: 
#        150
#        11880
#        22790
#        35408
#        53225
#        70273
#        82488
#        92800
#        108545
#        118835
#        131340
#
# Disc length: 1971 seconds
#
# Revision: 0
# Processed by: cddbd v1.5.2PL0 Copyright (c) Steve Scherf et al.
# Submitted via: ExactAudioCopy v1.3
#
DISCID=9507b10b
DTITLE=Buddy Guy - Left My Blues In San Francisco
DYEAR=1967
DGENRE=Electric Blues, Chicago Blues
TTITLE0=Keep It To Myself
TTITLE1=Crazy Love
TTITLE2=I Suffer With The Blues
TTITLE3=When My Left Eye Jumps
TTITLE4=Buddy's Groove
TTITLE5=Goin' Home
TTITLE6=She Suits Me To A Tee
TTITLE7=Leave My Girl Alone
TTITLE8=Too Many Ways
TTITLE9=Mother-In-Law
TTITLE10=Every Girl I See
EXTD=
EXTT0=
EXTT1=
EXTT2=
EXTT3=
EXTT4=
EXTT5=
EXTT6=
EXTT7=
EXTT8=
EXTT9=
EXTT10=
PLAYORDER=
